# Blender 3.4.1
# www.blender.org
mtllib door_v2.mtl
o Cube
v -0.100000 5.600000 2.850771
v -0.100000 0.400000 2.850771
v 0.100000 5.600000 2.850771
v 0.100000 0.400000 2.850771
v -0.100000 5.600000 5.850771
v -0.100000 0.400000 5.850771
v 0.100000 5.600000 5.850771
v 0.100000 0.400000 5.850771
v 0.099999 -0.000000 6.373993
v 0.100000 6.537957 6.374986
v 0.100000 6.536941 2.352617
v 0.099999 -0.000000 2.352931
v -0.100001 -0.000000 2.305335
v -0.100001 -0.000000 6.446773
v -0.100000 6.559799 2.305042
v -0.100000 6.560844 6.447812
v -0.000000 0.400000 2.850771
v 0.000000 0.400000 5.850771
v -0.000000 5.600000 2.850771
v 0.000000 5.600000 5.850771
v 0.060143 0.400000 5.850771
v 0.000000 2.102852 5.249345
v 0.000000 3.897148 5.249345
v 0.060143 5.600000 5.850771
v 0.060143 5.600000 2.850771
v -0.000000 3.897148 3.452197
v -0.000000 2.102852 3.452197
v 0.060143 0.400000 2.850771
vn 0.1136 0.9935 -0.0003
vn -0.0000 -0.0000 1.0000
vn 0.3420 -0.0001 0.9397
vn -0.0000 -1.0000 -0.0000
vn 0.2315 -0.0000 -0.9728
vn 1.0000 -0.0000 -0.0000
vn -1.0000 -0.0000 -0.0000
vn -0.0000 1.0000 -0.0000
vn -0.0000 -0.0000 -1.0000
vn 0.9950 -0.0000 -0.0995
vn 0.9950 -0.0000 0.0995
vn 0.9994 -0.0353 -0.0000
vn 0.9994 0.0353 -0.0000
vt 0.600000 0.475000
vt 0.400000 0.475000
vt 0.600000 0.775000
vt 0.400000 0.775000
vt 0.600000 0.275000
vt 0.400000 0.275000
vt 0.600000 0.975000
vt 0.400000 0.975000
vt 0.375000 0.000000
vt 0.125000 0.750000
vt 0.375000 1.000000
vt 0.875000 0.750000
vt 0.625000 0.000000
vt 0.625000 1.000000
vt 0.625000 0.750000
vt 0.375000 0.750000
vt 0.375000 0.500000
vt 0.125000 0.500000
vt 0.375000 0.250000
vt 0.625000 0.500000
vt 0.875000 0.500000
vt 0.625000 0.250000
vt 0.400000 0.475000
vt 0.000000 0.000000
vt 0.400000 0.275000
vt 0.000000 0.000000
vt 0.600000 0.475000
vt 0.600000 0.275000
vt 0.000000 0.000000
vt 0.400000 0.975000
vt 0.000000 0.000000
vt 0.475178 0.899822
vt 0.524822 0.899822
vt 0.600000 0.975000
vt 0.000000 0.000000
vt 0.600000 0.775000
vt 0.524822 0.850178
vt 0.475178 0.850178
vt 0.400000 0.775000
vt 0.000000 0.000000
s 0
usemtl Material
f 15/20/1 16/21/1 10/12/1 11/15/1
f 4/4/2 3/3/2 25/36/2 28/39/2
f 9/9/3 10/13/3 16/22/3 14/19/3
f 14/18/4 13/17/4 12/16/4 9/10/4
f 13/17/5 15/20/5 11/15/5 12/16/5
f 5/5/4 1/1/4 19/27/4 20/28/4
f 8/8/6 7/7/6 10/14/6 9/11/6
f 3/3/6 4/4/6 12/16/6 11/15/6
f 7/7/6 3/3/6 11/15/6 10/14/6
f 4/4/6 8/8/6 9/11/6 12/16/6
f 6/6/7 2/2/7 13/17/7 14/19/7
f 2/2/7 1/1/7 15/20/7 13/17/7
f 5/5/7 6/6/7 14/19/7 16/22/7
f 1/1/7 5/5/7 16/22/7 15/20/7
f 8/8/8 4/4/8 28/39/8 21/30/8
f 27/38/6 26/37/6 23/33/6 22/32/6
f 3/3/4 7/7/4 24/34/4 25/36/4
f 1/1/2 2/2/2 17/23/2 19/27/2
f 6/6/9 5/5/9 20/28/9 18/25/9
f 2/2/8 6/6/8 18/25/8 17/23/8
f 22/32/10 23/33/10 24/34/10 21/30/10
f 26/37/11 27/38/11 28/39/11 25/36/11
f 25/36/12 24/34/12 23/33/12 26/37/12
f 21/30/13 28/39/13 27/38/13 22/32/13
f 7/7/9 8/8/9 21/30/9 24/34/9
f 20/28/4 19/27/4 25/36/4 24/34/4
f 20/29/9 24/35/9 21/31/9 18/26/9
f 28/40/8 17/24/8 18/26/8 21/31/8
o Cube.001
v 0.024098 2.970000 3.017550
v 0.024098 2.970000 3.217550
v 0.024098 2.770000 3.217550
v 0.024098 2.770000 3.017550
v 0.146622 2.770000 3.112215
v 0.146622 2.770000 3.162885
v 0.146622 2.970000 3.162885
v 0.146622 2.970000 3.112215
v -0.076569 2.770000 3.156204
v -0.076569 2.770000 3.078896
v -0.076569 2.970000 3.078896
v -0.076569 2.970000 3.156204
vn -0.0000 1.0000 -0.0000
vn -0.0000 -1.0000 -0.0000
vn 1.0000 -0.0000 -0.0000
vn 0.1476 -0.0000 -0.9890
vn -1.0000 -0.0000 -0.0000
vn -0.0299 -0.0000 0.9996
vt 0.625000 0.625000
vt 0.875000 0.625000
vt 0.625000 0.125000
vt 0.125000 0.625000
vt 0.375000 0.125000
vt 0.375000 0.625000
vt 0.188338 0.718331
vt 0.375000 0.718331
vt 0.125000 0.718331
vt 0.375000 0.750000
vt 0.375000 0.031669
vt 0.688338 0.718331
vt 0.625000 0.750000
vt 0.625000 0.031669
vt 0.625000 0.718331
vt 0.278365 0.548318
vt 0.375000 0.500000
vt 0.375000 0.201682
vt 0.375000 0.548318
vt 0.778365 0.548318
vt 0.625000 0.548318
vt 0.875000 0.548318
vt 0.625000 0.500000
vt 0.625000 0.201682
s 0
f 39/60/14 40/62/14 30/42/14 35/52/14 36/55/14 29/41/14
f 37/56/15 38/59/15 32/46/15 33/47/15 34/49/15 31/44/15
f 33/48/16 36/55/16 35/53/16 34/50/16
f 38/59/17 39/61/17 29/41/17 36/55/17 33/48/17 32/46/17
f 39/61/18 38/59/18 37/57/18 40/63/18
f 34/51/19 35/54/19 30/43/19 40/64/19 37/58/19 31/45/19
