# Blender 3.4.1
# www.blender.org
mtllib untitled.mtl
o floor
v -20.035685 0.000000 42.598949
v 20.035685 0.000000 42.598949
v -20.035685 0.000000 -30.219646
v 20.035685 0.000000 -30.219646
v -20.035685 0.000000 42.598949
v 20.035685 0.000000 42.598949
v -20.035685 0.000000 -30.219646
v 20.035685 0.000000 -30.219646
vn -0.0000 -1.0000 -0.0000
vn -0.0000 1.0000 -0.0000
vt 0.000000 0.000000
vt 1.000000 0.000000
vt 0.000000 1.000000
vt 1.000000 1.000000
vt 0.000000 0.000000
vt 1.000000 0.000000
vt 0.000000 1.000000
vt 1.000000 1.000000
s 0
f 1/1/1 3/3/1 4/4/1 2/2/1
f 5/5/2 6/6/2 8/8/2 7/7/2
f 2/2/2 4/4/2 8/8/2 6/6/2
f 3/3/2 1/1/2 5/5/2 7/7/2
f 4/4/2 3/3/2 7/7/2 8/8/2
f 1/1/2 2/2/2 6/6/2 5/5/2
o wall1
v 19.261990 0.575190 -27.732759
v 19.261990 2.575190 -27.732759
v 19.261990 0.575190 -29.732759
v 19.261990 2.575190 -29.732759
v 20.061989 0.575190 -27.732759
v 20.061989 2.575190 -27.732759
v 20.061989 0.575190 -29.732759
v 20.061989 2.575190 -29.732759
v 19.261990 0.575190 0.688726
v 19.261990 2.575190 0.688726
v 20.061989 2.575190 0.688726
v 20.061989 0.575190 0.688726
v 19.261990 8.026715 -27.732759
v 19.261990 8.026715 -29.732759
v 20.061989 8.026715 -29.732759
v 20.061989 8.026715 -27.732759
v 20.061989 8.026715 0.688726
v 19.261990 8.026715 0.688726
v 19.261990 9.971272 -27.732759
v 19.261990 9.971272 -29.732759
v 20.061989 9.971272 -29.732759
v 20.061989 9.971272 -27.732759
v 20.061989 9.971272 0.688726
v 19.261990 9.971272 0.688726
v 20.061989 8.026715 8.622423
v 19.261990 8.026715 8.622423
v 20.061989 9.971272 8.622423
v 19.261990 9.971272 8.622423
v 20.061989 8.026715 36.223221
v 19.261990 8.026715 36.223221
v 20.061989 9.971272 36.223221
v 19.261990 9.971272 36.223221
v 20.061989 0.108640 8.622423
v 19.261990 0.108640 8.622423
v 20.061989 0.108640 36.223221
v 19.261990 0.108640 36.223221
v 20.061989 8.026715 42.640724
v 19.261990 8.026715 42.640724
v 20.061989 9.971272 42.640724
v 19.261990 9.971272 42.640724
v 20.061989 0.108640 42.640724
v 19.261990 0.108640 42.640724
v 19.261990 0.020288 -29.732759
v 19.261990 0.020288 -27.732759
v 20.061989 0.020288 -29.732759
v 20.061989 0.020288 -27.732759
v 19.261990 0.020288 0.688726
v 20.061989 0.020288 0.688726
vn -1.0000 -0.0000 -0.0000
vn -0.0000 -0.0000 -1.0000
vn 1.0000 -0.0000 -0.0000
vn -0.0000 -0.0000 1.0000
vn -0.0000 1.0000 -0.0000
vn -0.0000 -1.0000 -0.0000
vt 0.375000 0.000000
vt 0.625000 0.000000
vt 0.375000 0.250000
vt 0.625000 0.250000
vt 0.375000 0.750000
vt 0.625000 0.750000
vt 0.375000 0.500000
vt 0.625000 0.500000
vt 0.375000 1.000000
vt 0.375000 0.000000
vt 0.625000 1.000000
vt 0.625000 0.000000
vt 0.625000 0.750000
vt 0.375000 0.750000
vt 0.625000 0.000000
vt 0.625000 0.250000
vt 0.625000 0.500000
vt 0.625000 0.750000
vt 0.625000 0.750000
vt 0.625000 1.000000
vt 0.625000 0.000000
vt 0.875000 0.750000
vt 0.625000 0.000000
vt 0.875000 0.500000
vt 0.625000 0.250000
vt 0.625000 0.500000
vt 0.625000 0.750000
vt 0.625000 0.750000
vt 0.625000 0.000000
vt 0.875000 0.750000
vt 0.625000 0.750000
vt 0.625000 1.000000
vt 0.625000 0.000000
vt 0.625000 0.750000
vt 0.625000 0.000000
vt 0.875000 0.750000
vt 0.625000 0.750000
vt 0.625000 0.000000
vt 0.625000 0.750000
vt 0.625000 0.000000
vt 0.875000 0.750000
vt 0.625000 0.750000
vt 0.625000 1.000000
vt 0.625000 0.000000
vt 0.625000 0.750000
vt 0.625000 1.000000
vt 0.625000 0.000000
vt 0.625000 0.750000
vt 0.625000 1.000000
vt 0.625000 0.000000
vt 0.625000 0.750000
vt 0.625000 1.000000
vt 0.625000 0.000000
vt 0.875000 0.750000
vt 0.625000 0.750000
vt 0.625000 1.000000
vt 0.625000 0.000000
vt 0.125000 0.500000
vt 0.375000 0.250000
vt 0.125000 0.750000
vt 0.375000 0.000000
vt 0.375000 0.500000
vt 0.375000 0.750000
vt 0.125000 0.750000
vt 0.375000 1.000000
vt 0.375000 0.000000
vt 0.375000 0.750000
s 0
f 9/9/3 10/10/3 12/12/3 11/11/3
f 11/11/4 12/12/4 16/16/4 15/15/4
f 15/15/5 16/16/5 14/14/5 13/13/5
f 19/21/5 14/14/5 24/26/5 25/27/5
f 15/15/5 13/13/5 54/71/5 53/70/5
f 14/14/5 16/16/5 23/25/5 24/26/5
f 20/22/6 19/21/6 18/19/6 17/17/6
f 13/13/5 14/14/5 19/21/5 20/22/5
f 10/10/3 9/9/3 17/18/3 18/20/3
f 13/13/5 20/22/5 56/75/5 54/71/5
f 25/27/5 31/36/5 35/42/5 33/39/5
f 25/27/5 24/26/5 30/35/5 31/36/5
f 18/19/6 19/21/6 25/27/6 26/28/6
f 12/12/3 10/10/3 21/23/3 22/24/3
f 10/10/3 18/20/3 26/29/3 21/23/3
f 16/16/4 12/12/4 22/24/4 23/25/4
f 30/35/7 27/30/7 32/38/7 31/36/7
f 29/34/7 28/32/7 27/30/7 30/35/7
f 24/26/5 23/25/5 29/34/5 30/35/5
f 22/24/3 21/23/3 27/31/3 28/33/3
f 21/23/3 26/29/3 32/37/3 27/31/3
f 23/25/4 22/24/4 28/33/4 29/34/4
f 33/39/5 35/42/5 39/47/5 37/45/5
f 26/28/8 25/27/8 33/39/8 34/40/8
f 32/37/3 26/29/3 34/41/3 36/43/3
f 31/36/7 32/38/7 36/44/7 35/42/7
f 37/45/5 39/47/5 47/59/5 45/56/5
f 43/53/5 37/45/5 45/56/5 49/63/5
f 36/43/3 34/41/3 38/46/3 40/48/3
f 35/42/7 36/44/7 40/49/7 39/47/7
f 42/51/8 41/50/8 43/53/8 44/54/8
f 33/39/5 37/45/5 43/53/5 41/50/5
f 34/40/4 33/39/4 41/50/4 42/51/4
f 38/46/3 34/41/3 42/52/3 44/55/3
f 46/57/6 45/56/6 47/59/6 48/60/6
f 45/56/6 46/57/6 50/64/6 49/63/6
f 44/54/8 43/53/8 49/63/8 50/64/8
f 40/48/3 38/46/3 46/58/3 48/61/3
f 38/46/3 44/55/3 50/65/3 46/58/3
f 39/47/7 40/49/7 48/62/7 47/59/7
f 51/66/8 53/70/8 54/71/8 52/68/8
f 52/68/8 54/71/8 56/75/8 55/72/8
f 20/22/6 17/17/6 55/73/6 56/75/6
f 17/18/3 9/9/3 52/69/3 55/74/3
f 11/11/4 15/15/4 53/70/4 51/67/4
f 9/9/3 11/11/3 51/67/3 52/69/3
o wall2
v -20.268391 0.089833 42.499855
v -20.268391 2.089833 42.499855
v -20.268391 0.089833 -30.559860
v -20.268391 2.089833 -30.559860
v -19.468391 0.089833 42.499855
v -19.468391 2.089833 42.499855
v -19.468391 0.089833 -30.559860
v -19.468391 2.089833 -30.559860
v -20.268391 2.089833 42.499855
v -20.268391 2.089833 -30.559860
v -19.468391 2.089833 -30.559860
v -19.468391 2.089833 42.499855
v -20.268391 2.089833 42.499855
v -20.268391 2.089833 -30.559860
v -19.468391 2.089833 -30.559860
v -19.468391 2.089833 42.499855
v -20.268391 9.370190 42.499855
v -20.268391 9.370190 -30.559860
v -19.468391 9.370190 -30.559860
v -19.468391 9.370190 42.499855
v -20.268391 10.098227 42.499855
v -20.268391 10.098227 -30.559860
v -19.468391 10.098227 -30.559860
v -19.468391 10.098227 42.499855
vn -1.0000 -0.0000 -0.0000
vn -0.0000 -0.0000 -1.0000
vn 1.0000 -0.0000 -0.0000
vn -0.0000 -0.0000 1.0000
vn -0.0000 -1.0000 -0.0000
vn -0.0000 1.0000 -0.0000
vt 0.375000 0.000000
vt 0.375000 1.000000
vt 0.125000 0.750000
vt 0.625000 1.000000
vt 0.625000 0.000000
vt 0.375000 0.250000
vt 0.125000 0.500000
vt 0.625000 0.250000
vt 0.375000 0.750000
vt 0.625000 0.750000
vt 0.375000 0.500000
vt 0.625000 0.500000
vt 0.625000 0.000000
vt 0.625000 1.000000
vt 0.625000 0.250000
vt 0.625000 0.500000
vt 0.625000 0.750000
vt 0.625000 1.000000
vt 0.625000 0.000000
vt 0.625000 0.250000
vt 0.625000 0.500000
vt 0.625000 0.750000
vt 0.625000 1.000000
vt 0.625000 0.000000
vt 0.625000 0.250000
vt 0.625000 0.500000
vt 0.625000 0.750000
vt 0.625000 1.000000
vt 0.875000 0.750000
vt 0.625000 0.000000
vt 0.875000 0.500000
vt 0.625000 0.250000
vt 0.625000 0.500000
vt 0.625000 0.750000
s 0
f 57/76/9 58/80/9 60/83/9 59/81/9
f 59/81/10 60/83/10 64/87/10 63/86/10
f 63/86/11 64/87/11 62/85/11 61/84/11
f 61/84/12 62/85/12 58/79/12 57/77/12
f 59/82/13 63/86/13 61/84/13 57/78/13
f 58/79/14 62/85/14 68/92/14 65/89/14
f 67/91/14 66/90/14 70/95/14 71/96/14
f 64/87/14 60/83/14 66/90/14 67/91/14
f 62/85/14 64/87/14 67/91/14 68/92/14
f 60/83/14 58/80/14 65/88/14 66/90/14
f 69/93/12 72/97/12 76/102/12 73/98/12
f 68/92/14 67/91/14 71/96/14 72/97/14
f 66/90/14 65/88/14 69/94/14 70/95/14
f 65/89/14 68/92/14 72/97/14 69/93/14
f 73/98/12 76/102/12 80/109/12 77/103/12
f 71/96/10 70/95/10 74/100/10 75/101/10
f 72/97/11 71/96/11 75/101/11 76/102/11
f 70/95/9 69/94/9 73/99/9 74/100/9
f 79/108/14 78/106/14 77/104/14 80/109/14
f 75/101/10 74/100/10 78/107/10 79/108/10
f 76/102/11 75/101/11 79/108/11 80/109/11
f 74/100/9 73/99/9 77/105/9 78/107/9
o wall3
v 20.211966 -0.211070 -29.475727
v 20.211966 1.788930 -29.475727
v -20.481173 -0.211070 -29.475725
v -20.481173 1.788930 -29.475725
v 20.211966 -0.211070 -30.275728
v 20.211966 1.788930 -30.275728
v -20.481173 -0.211070 -30.275726
v -20.481173 1.788930 -30.275726
v 20.211966 9.962481 -29.475727
v -20.481173 9.962481 -29.475725
v -20.481173 9.962481 -30.275726
v 20.211966 9.962481 -30.275728
vn -0.0000 -0.0000 1.0000
vn -1.0000 -0.0000 -0.0000
vn -0.0000 -0.0000 -1.0000
vn 1.0000 -0.0000 -0.0000
vn -0.0000 -1.0000 -0.0000
vn -0.0000 1.0000 -0.0000
vt 0.375000 0.000000
vt 0.375000 1.000000
vt 0.125000 0.750000
vt 0.625000 0.000000
vt 0.625000 1.000000
vt 0.375000 0.250000
vt 0.125000 0.500000
vt 0.625000 0.250000
vt 0.375000 0.750000
vt 0.625000 0.750000
vt 0.375000 0.500000
vt 0.625000 0.500000
vt 0.875000 0.750000
vt 0.625000 0.000000
vt 0.625000 1.000000
vt 0.875000 0.500000
vt 0.625000 0.250000
vt 0.625000 0.500000
vt 0.625000 0.750000
s 0
f 81/110/15 82/113/15 84/117/15 83/115/15
f 83/115/16 84/117/16 88/121/16 87/120/16
f 87/120/17 88/121/17 86/119/17 85/118/17
f 85/118/18 86/119/18 82/114/18 81/111/18
f 83/116/19 87/120/19 85/118/19 81/112/19
f 88/121/16 84/117/16 90/126/16 91/127/16
f 91/127/20 90/125/20 89/122/20 92/128/20
f 86/119/17 88/121/17 91/127/17 92/128/17
f 84/117/15 82/113/15 89/123/15 90/126/15
f 82/114/18 86/119/18 92/128/18 89/124/18
o wall4
v 20.244926 -0.275842 43.025433
v 20.244926 1.724158 43.025433
v -20.791325 -0.275842 43.025436
v -20.791325 1.724158 43.025436
v 20.244926 -0.275842 42.225433
v 20.244926 1.724158 42.225433
v -20.791325 -0.275842 42.225437
v -20.791325 1.724158 42.225437
v 20.244926 9.975233 43.025433
v -20.791325 9.975233 43.025436
v -20.791325 9.975233 42.225437
v 20.244926 9.975233 42.225433
vn -0.0000 -0.0000 1.0000
vn -1.0000 -0.0000 -0.0000
vn -0.0000 -0.0000 -1.0000
vn 1.0000 -0.0000 -0.0000
vn -0.0000 -1.0000 -0.0000
vn -0.0000 1.0000 -0.0000
vt 0.375000 0.000000
vt 0.375000 1.000000
vt 0.125000 0.750000
vt 0.625000 0.000000
vt 0.625000 1.000000
vt 0.375000 0.250000
vt 0.125000 0.500000
vt 0.625000 0.250000
vt 0.375000 0.750000
vt 0.625000 0.750000
vt 0.375000 0.500000
vt 0.625000 0.500000
vt 0.875000 0.750000
vt 0.625000 0.000000
vt 0.625000 1.000000
vt 0.875000 0.500000
vt 0.625000 0.250000
vt 0.625000 0.500000
vt 0.625000 0.750000
s 0
f 93/129/21 94/132/21 96/136/21 95/134/21
f 95/134/22 96/136/22 100/140/22 99/139/22
f 99/139/23 100/140/23 98/138/23 97/137/23
f 97/137/24 98/138/24 94/133/24 93/130/24
f 95/135/25 99/139/25 97/137/25 93/131/25
f 98/138/23 100/140/23 103/146/23 104/147/23
f 103/146/26 102/144/26 101/141/26 104/147/26
f 96/136/21 94/132/21 101/142/21 102/145/21
f 94/133/24 98/138/24 104/147/24 101/143/24
f 100/140/22 96/136/22 102/145/22 103/146/22
o Cube
v 9.461153 0.120777 34.954578
v 9.461153 2.120777 34.954578
v 9.461153 0.120777 32.954578
v 9.461153 2.120777 32.954578
v 18.122082 0.120777 34.954578
v 18.122082 2.120777 34.954578
v 18.122082 0.120777 32.954578
v 18.122082 2.120777 32.954578
vn -1.0000 -0.0000 -0.0000
vn -0.0000 -0.0000 -1.0000
vn 1.0000 -0.0000 -0.0000
vn -0.0000 -0.0000 1.0000
vn -0.0000 -1.0000 -0.0000
vn -0.0000 1.0000 -0.0000
vt 0.375000 0.000000
vt 0.375000 1.000000
vt 0.125000 0.750000
vt 0.625000 0.000000
vt 0.625000 1.000000
vt 0.875000 0.750000
vt 0.375000 0.250000
vt 0.125000 0.500000
vt 0.625000 0.250000
vt 0.875000 0.500000
vt 0.375000 0.750000
vt 0.625000 0.750000
vt 0.375000 0.500000
vt 0.625000 0.500000
s 0
f 105/148/27 106/151/27 108/156/27 107/154/27
f 107/154/28 108/156/28 112/161/28 111/160/28
f 111/160/29 112/161/29 110/159/29 109/158/29
f 109/158/30 110/159/30 106/152/30 105/149/30
f 107/155/31 111/160/31 109/158/31 105/150/31
f 112/161/32 108/157/32 106/153/32 110/159/32
