# Blender 3.4.1
# www.blender.org
mtllib room_v3_wall1.mtl
o Cube.002
v 30.000000 0.000000 -30.000000
v 30.000000 10.000000 -30.000000
v -28.000000 0.000000 -29.999998
v -28.000000 10.000000 -29.999998
v 30.000000 0.000000 -30.800001
v 30.000000 10.000000 -30.800001
v -28.000000 0.000000 -30.799999
v -28.000000 10.000000 -30.799999
v -2.499997 8.000001 -30.000000
v -2.499997 0.000000 -30.000000
v 4.500002 8.000001 -30.799999
v 4.500002 0.000000 -30.799999
v -2.499997 8.000001 -30.799999
v -2.499997 0.000000 -30.799999
v 4.500002 8.000001 -30.000000
v 4.500002 0.000000 -30.000000
vn -1.0000 -0.0000 -0.0000
vn 1.0000 -0.0000 -0.0000
vn -0.0000 -1.0000 -0.0000
vn -0.0000 1.0000 -0.0000
vn -0.0000 -0.0000 -1.0000
vn 0.0069 0.0885 0.9960
vn -0.0000 -0.0000 1.0000
vt 0.375000 1.000000
vt 0.125000 0.750000
vt 0.625000 1.000000
vt 0.375000 0.250000
vt 0.125000 0.500000
vt 0.000000 0.000000
vt 0.000000 0.000000
vt 0.625000 0.250000
vt 0.375000 0.750000
vt 0.625000 0.750000
vt 0.375000 0.500000
vt 0.625000 0.500000
vt 0.000000 0.000000
vt 0.000000 0.000000
vt 0.625000 0.000000
vt 0.375000 0.250000
vt 0.125000 0.609914
vt 0.000000 0.000000
vt 0.625000 0.500000
vt 0.375000 0.750000
vt 0.375000 0.640086
vt 0.625000 0.000000
vt 0.000000 0.000000
vt 0.375000 0.609914
vt 0.375000 0.250000
vt 0.625000 0.500000
vt 0.375000 0.750000
vt 0.125000 0.640086
s 0
f 3/4/1 4/8/1 8/12/1 7/11/1
f 5/9/2 6/10/2 2/3/2 1/1/2
f 5/9/3 1/2/3 16/28/3 12/21/3
f 3/5/3 7/11/3 14/24/3 10/17/3
f 14/24/4 10/17/4 16/28/4 12/21/4
f 8/12/4 4/8/4 2/3/4 6/10/4
f 7/11/5 8/12/5 13/22/5 14/25/5
f 5/9/5 12/21/5 11/19/5 6/10/5
f 3/6/6 10/18/6 9/14/6 13/23/6 8/13/6 4/7/6
f 1/2/7 2/3/7 15/26/7 16/28/7
f 14/25/2 13/22/2 9/15/2 10/16/2
f 15/26/1 11/19/1 12/20/1 16/27/1
f 11/19/3 15/26/3 9/15/3 13/22/3
f 13/22/5 8/12/5 6/10/5 11/19/5
f 9/15/7 15/26/7 2/3/7 4/8/7
