# Blender 3.4.1
# www.blender.org
mtllib room_v3_wall3.mtl
o Cube.002
v 30.000000 0.000000 -30.000000
v 30.000000 10.000000 -30.000000
v -28.000000 0.000000 -29.999998
v -28.000000 10.000000 -29.999998
v 30.000000 0.000000 -30.800001
v 30.000000 10.000000 -30.800001
v -28.000000 0.000000 -30.799999
v -28.000000 10.000000 -30.799999
v 1.000000 10.000000 -30.000000
v 1.000000 10.000000 -30.799999
v 1.000000 8.000001 -30.000000
v -2.499997 8.000001 -30.000000
v -2.499997 0.000000 -30.000000
v 4.500002 8.000001 -30.799999
v 1.000000 8.000001 -30.799999
v 1.000002 8.000001 -30.799999
v 4.500002 0.000000 -30.799999
v -2.499997 8.000001 -30.799999
v -2.499997 0.000000 -30.799999
v 4.500002 8.000001 -30.000000
v 4.500002 0.000000 -30.000000
v 1.000002 8.000001 -30.000000
vn -0.0000 -0.0000 1.0000
vn -1.0000 -0.0000 -0.0000
vn -0.0000 -0.0000 -1.0000
vn 1.0000 -0.0000 -0.0000
vn -0.0000 -1.0000 -0.0000
vn -0.0000 1.0000 -0.0000
vt 0.375000 1.000000
vt 0.125000 0.750000
vt 0.375000 0.000000
vt 0.625000 1.000000
vt 0.875000 0.750000
vt 0.625000 0.000000
vt 0.375000 0.250000
vt 0.125000 0.500000
vt 0.625000 0.250000
vt 0.875000 0.500000
vt 0.375000 0.750000
vt 0.625000 0.750000
vt 0.375000 0.500000
vt 0.625000 0.500000
vt 0.875000 0.625000
vt 0.625000 0.125000
vt 0.625000 0.625000
vt 0.575000 0.125000
vt 0.750000 0.625000
vt 0.575000 0.140086
vt 0.625000 0.000000
vt 0.875000 0.625000
vt 0.375000 0.140086
vt 0.375000 0.250000
vt 0.125000 0.609914
vt 0.575000 0.640086
vt 0.625000 0.500000
vt 0.625000 0.591667
vt 0.575000 0.625000
vt 0.750000 0.591667
vt 0.575000 0.625000
vt 0.750000 0.591667
vt 0.375000 0.750000
vt 0.375000 0.640086
vt 0.575000 0.609914
vt 0.625000 0.000000
vt 0.875000 0.591667
vt 0.375000 0.250000
vt 0.375000 0.609914
vt 0.575000 0.109914
vt 0.625000 0.500000
vt 0.625000 0.625000
vt 0.375000 0.109914
vt 0.375000 0.750000
vt 0.125000 0.640086
vt 0.575000 0.125000
vt 0.750000 0.625000
s 0
f 11/18/1 9/16/1 4/9/1 3/7/1 13/23/1 12/20/1
f 3/7/2 4/9/2 8/14/2 7/13/2
f 15/29/3 10/17/3 6/12/3 5/11/3 17/34/3 14/26/3 16/31/3
f 5/11/4 6/12/4 2/4/4 1/1/4
f 5/11/5 1/2/5 21/45/5 17/34/5
f 10/17/6 9/15/6 2/5/6 6/12/6
f 8/14/6 4/10/6 9/15/6 10/17/6
f 3/8/5 7/13/5 19/39/5 13/25/5
f 7/13/3 8/14/3 10/17/3 15/29/3 18/35/3 19/39/3
f 1/3/1 2/6/1 9/16/1 11/18/1 22/46/1 20/40/1 21/43/1
f 19/39/6 13/25/6 21/45/6 17/34/6
f 19/38/4 18/36/4 12/21/4 13/24/4
f 20/41/2 14/27/2 17/33/2 21/44/2
f 11/19/5 12/22/5 18/37/5 15/30/5 16/32/5 22/47/5
f 22/47/5 16/32/5 14/28/5 20/42/5
